# xmcd
#
# Track frame offsets:
#	150
#	21360
#	35916
#	55661
#	75508
#	91578
#	102211
#	104632
#	105934
#	107189
#	110187
#	111877
#	114386
#	119413
#	133752
#	154611
#	172046
#	187665
#	207202
#	227801
#	248192
#	265969
#	284322
#	306888
#
# Disc length: 4530 seconds
#
# Revision: 0
# Processed by: cddbd v1.5.2PL0 Copyright (c) Steve Scherf et al.
# Submitted via: EasyCDDAExtractor 12.0.0.1
#
DISCID=4a11b018
DTITLE=Various Artist - LEGEND 2009
DYEAR=2009
DGENRE=GREEK
TTITLE0=ΜΑΝΩΛΗΣ ΛΙΔΑΚΗΣ - ΚΑΡΔΙΑ ΕΧΩ ΑΔΕΙΑ
TTITLE1=ΒΑΣΙΛΗΣ ΛΕΚΚΑΣ - ΜΙΑ ΓΟΥΛΙΑ ΚΑΦΕΣ
TTITLE2=ΛΑΥΡΕΝΤΗΣ ΜΑΧΑΙΡΙΤΣΑΣ - Η ΦΑΛΑΙΝΑ (WC VERSION)
TTITLE3=INCOGNIA - Ο ΤΕΛΕΥΤΑΙΟΣ ΧΟΡΟΣ ΤΟΥ ΣΧΟΛΕΙΟΥ
TTITLE4=ANASA - ΠΛΗΡΩΜΕΝΑ ΦΙΛΙΑ
TTITLE5=ΒΑΓΓΕΛΗΣ ΜΠΟΥΝΤΟΥΝΗΣ - ΖΩΝΑΡΑΔΙΚΟΣ ΧΟΡΟΣ
TTITLE6=ΛΟΥΚΙΑΝΟΣ ΚΗΛΑΗΔΟΝΗΣ - ΤΗΝ ΠΡΩΤΗ ΜΕΡΑ ΣΤΟΝ ΣΤΡΑΤΟ
TTITLE7=ΒΑΓΓΕΛΗΣ ΓΕΡΜΑΝΟΣ - ΠΑΡΕ ΔΕΚΑ
TTITLE8=ΓΙΑΝΝΗΣ ΓΙΟΚΑΡΙΝΗΣ - ΑΓΑΠΩ ΤΗΝ ΚΙΚΗ, ΓΑΜΩ ΤΟ ΝΑΥΤΙΚΟ
TTITLE9=ΛΟΥΚΙΑΝΟΣ ΚΗΛΑΗΔΟΝΗΣ - ΕΜΠΛΕΞΑ ΜΕ ΤΟΥΣ ΚΑΡΑΒΑΝΑΔΕΣ
TTITLE10=ΜΑΝΩΛΗΣ ΜΗΤΣΙΑΣ - ΜΟΥ ΗΡΘΕ Η ΜΕΤΑΘΕΣΗ
TTITLE11=ΧΑΡΡΥ ΚΛΥΝΝ - ΕΝΑ ΜΟΝΑΧΑ ΣΚΕΦΤΟΜΑΙ
TTITLE12=ΛΟΥΚΙΑΝΟΣ ΚΗΛΑΗΔΟΝΗΣ - ΦΑΝΤΑΡΙΑ ΑΝΤΕ ΓΕΙΑ ΣΑΣ
TTITLE13=ΜΕΛΙΝΑ ΚΑΝΑ - Ο ΚΥΡΙΟΣ ΚΑΛΟΜΟΙΡΗΣ
TTITLE14=ΜΑΝΩΛΗΣ ΛΙΔΑΚΗΣ - ΑΡΧΑΓΓΕΛΟΣ
TTITLE15=ΒΑΓΓΕΛΗΣ  ΜΠΟΥΝΤΟΥΝΗΣ - O' PASTOR
TTITLE16=ΜΙΧΑΛΗΣ ΕΜΙΡΛΗΣ - ΖΩ ΠΕΡΙΜΕΝΟΝΤΑΣ ΝΑ ΖΗΣΩ
TTITLE17=ΓΙΩΡΓΟΣ ΤΕΝΤΖΑΡΑΚΗΣ - ΜΕΣΑ ΣΤΗΝ ΑΥΡΑ ΣΟΥ
TTITLE18=ΝΙΚΟΣ ΑΛΙΑΓΑΣ, ΜΑΥΡΟΥΔΗΣ , ΜΑΡΓΑΡΗΣ - NE ME QUITTE PAS
TTITLE19=ΝΙΚΟΣ ΑΛΙΑΓΑΣ, ΜΑΥΡΟΥΔΗΣ , ΜΑΡΓΑΡΗΣ - TAKE FIVE
TTITLE20=ΜΑΡΙΑ ΦΑΡΑΝΤΟΥΡΗ - SUMMERTIME
TTITLE21=ΜΑΝΩΛΗΣ ΜΗΤΣΙΑΣ - ΤΟ ΡΑΒΔΙ ΚΑΙ ΤΟ ΚΛΕΙΔΙ
TTITLE22=ΘΑΝΟΣ ΜΙΚΡΟΥΤΣΙΚΟΣ - ΣΤΗΣ ΓΟΡΓΟΝΑΣ ΤΟ ΦΤΕΡΟ
TTITLE23=ΘΑΝΟΣ ΜΙΚΡΟΥΤΣΙΚΟΣ - ΣΤΗΝ ΜΑΡΙΑ,ΣΤΗΝ ΑΛΕΞΑΝΔΡΑ,ΣΤΟΝ ΣΤΕΡΓΙΟ
EXTD=
EXTT0=
EXTT1=
EXTT2=
EXTT3=
EXTT4=
EXTT5=
EXTT6=
EXTT7=
EXTT8=
EXTT9=
EXTT10=
EXTT11=
EXTT12=
EXTT13=
EXTT14=
EXTT15=
EXTT16=
EXTT17=
EXTT18=
EXTT19=
EXTT20=
EXTT21=
EXTT22=
EXTT23=
PLAYORDER=
